<?xml version="1.0" encoding="UTF-8"?>
<svg version="1.1" xmlns="http://www.w3.org/2000/svg" width="1000" height="410">
<path d="M0 0 C0.85411469 -0.00570007 1.70822937 -0.01140015 2.58822632 -0.01727295 C4.39864884 -0.02669655 6.20908832 -0.03324641 8.01953125 -0.03710938 C10.71647719 -0.04667301 13.41261225 -0.07766004 16.109375 -0.109375 C32.74449796 -0.2115403 58.65713888 -0.29600055 72.1484375 11.203125 C72.5492952 16.41019718 71.67807401 21.09116565 70.3984375 26.10546875 C70.22086914 26.8280336 70.04330078 27.55059845 69.86035156 28.2950592 C69.29728106 30.57886857 68.72306768 32.85969992 68.1484375 35.140625 C67.76227791 36.69838373 67.37685395 38.25632501 66.9921875 39.81445312 C66.05276121 43.61284028 65.10333848 47.40859992 64.1484375 51.203125 C59.58348351 52.28135775 56.96742244 51.79363406 52.4609375 50.390625 C30.93816659 44.14996129 5.5963357 43.33646444 -14.8515625 53.203125 C-25.47137005 59.13251755 -31.14719597 69.98107346 -34.8515625 81.203125 C-41.7363241 107.59471112 -42.7667669 141.12203983 -29.44140625 165.81640625 C-28.02255636 168.06764808 -26.52381304 170.13448915 -24.8515625 172.203125 C-24.33980469 172.83863281 -23.82804687 173.47414063 -23.30078125 174.12890625 C-16.21785477 182.02324197 -6.18335455 185.24010843 4.1484375 186.203125 C13.86823506 186.64335421 23.43071826 185.85097295 33.1484375 185.203125 C33.1484375 171.013125 33.1484375 156.823125 33.1484375 142.203125 C23.36536809 142.2822608 23.36536809 142.2822608 13.58251953 142.38330078 C12.36935059 142.3882959 11.15618164 142.39329102 9.90625 142.3984375 C8.03670654 142.41414795 8.03670654 142.41414795 6.12939453 142.43017578 C3.1484375 142.203125 3.1484375 142.203125 1.1484375 140.203125 C0.96067583 137.20176887 0.89293568 134.29425354 0.91796875 131.29296875 C0.91842697 130.41032852 0.91888519 129.52768829 0.9193573 128.61830139 C0.92238063 126.75129859 0.93026933 124.88429833 0.94262695 123.01733398 C0.96088524 120.14883561 0.96313666 117.28065979 0.96289062 114.41210938 C0.96780562 112.60155969 0.97363386 110.79101221 0.98046875 108.98046875 C0.98158157 108.11695297 0.9826944 107.25343719 0.98384094 106.36375427 C1.03239135 100.31917115 1.03239135 100.31917115 2.1484375 99.203125 C4.57700785 99.10282643 6.97715363 99.06694075 9.40625 99.07373047 C10.16556824 99.07197815 10.92488647 99.07022583 11.70721436 99.06842041 C14.22931166 99.0640017 16.75133943 99.06693994 19.2734375 99.0703125 C21.01839206 99.06963947 22.76334654 99.06866945 24.50830078 99.06741333 C28.17025645 99.06593633 31.83218778 99.06809097 35.49414062 99.07275391 C40.19888242 99.0784512 44.90356718 99.0751722 49.60830688 99.06918144 C53.21297641 99.06557588 56.81763232 99.06671439 60.42230225 99.06930923 C62.15753181 99.06997852 63.89276259 99.06915004 65.62799072 99.06682968 C68.04890237 99.06430323 70.46972036 99.06814362 72.890625 99.07373047 C73.61481628 99.07170624 74.33900757 99.06968201 75.08514404 99.06759644 C80.03417484 99.08886234 80.03417484 99.08886234 81.1484375 100.203125 C81.25929909 101.68418091 81.30136225 103.17044947 81.3157959 104.65557861 C81.32728668 105.61735519 81.33877747 106.57913177 81.35061646 107.5700531 C81.36171951 109.16587975 81.36171951 109.16587975 81.37304688 110.79394531 C81.38443695 111.90772049 81.39582703 113.02149567 81.40756226 114.16902161 C81.50513416 124.44855248 81.55650343 134.72868539 81.59325409 145.00860977 C81.62082554 152.60915505 81.6715717 160.20876662 81.75372839 167.80892301 C81.81624602 173.79489517 81.84047358 179.78043333 81.85151672 185.76674652 C81.86194615 188.31374561 81.8844378 190.86072445 81.91911316 193.40750885 C81.96512227 196.97067231 81.96734129 200.53133376 81.95898438 204.09472656 C81.98258026 205.15051407 82.00617615 206.20630157 82.03048706 207.29408264 C81.95112306 214.27157886 81.95112306 214.27157886 79.65156555 216.94029999 C77.86371185 218.25190896 76.15080974 219.25729591 74.1484375 220.203125 C73.06046875 220.739375 71.9725 221.275625 70.8515625 221.828125 C56.1559649 227.67976567 40.92924276 232.31182062 25.00390625 232.40625 C23.85091789 232.41480011 23.85091789 232.41480011 22.67463684 232.42352295 C21.05011344 232.43292554 19.42557138 232.43948795 17.80102539 232.44335938 C15.38065637 232.45294784 12.96118173 232.48396621 10.54101562 232.515625 C-15.3631058 232.69199068 -40.00225233 226.76077414 -59.8515625 209.203125 C-60.46386719 208.68492187 -61.07617188 208.16671875 -61.70703125 207.6328125 C-73.82644778 196.5949915 -80.40356328 180.22742376 -84.6015625 164.765625 C-84.80040039 164.03964111 -84.99923828 163.31365723 -85.20410156 162.56567383 C-88.67237837 148.9587851 -89.19959541 135.38382136 -89.16723633 121.42626953 C-89.16408999 118.60279157 -89.18758124 115.78037971 -89.21289062 112.95703125 C-89.270625 96.60005687 -87.91255845 80.12479459 -83.1640625 64.390625 C-82.91060059 63.53227051 -82.65713867 62.67391602 -82.39599609 61.78955078 C-75.37241322 39.10089225 -61.9023794 20.89233769 -40.82421875 9.578125 C-28.11440514 3.29391555 -14.1588992 0.07492514 0 0 Z " fill="#151013" transform="translate(156.8515625,85.796875)"/>
<path d="M0 0 C0.89432739 -0.00630432 1.78865479 -0.01260864 2.71008301 -0.019104 C4.16166809 -0.01303131 4.16166809 -0.01303131 5.64257812 -0.00683594 C6.6338269 -0.00874939 7.62507568 -0.01066284 8.6463623 -0.01263428 C10.7445501 -0.01399679 12.84274631 -0.01029576 14.94091797 -0.00195312 C18.16067358 0.00874535 21.37987121 -0.0018463 24.59960938 -0.01464844 C26.63476686 -0.01332685 28.669924 -0.01076449 30.70507812 -0.00683594 C31.67280151 -0.0108844 32.6405249 -0.01493286 33.63757324 -0.019104 C34.53190063 -0.01279968 35.42622803 -0.00649536 36.34765625 0 C37.13660278 0.00159119 37.92554932 0.00318237 38.73840332 0.00482178 C40.67382812 0.25878906 40.67382812 0.25878906 42.67382812 2.25878906 C42.86167295 4.81870808 42.92572618 7.26948546 42.90087891 9.82958984 C42.90117096 10.61016754 42.90146301 11.39074524 42.90176392 12.19497681 C42.9003678 14.78146384 42.88479354 17.3676647 42.86914062 19.95410156 C42.86541149 21.74486127 42.86256405 23.53562302 42.86056519 25.3263855 C42.85292087 30.04467378 42.83326557 34.76283937 42.81115723 39.4810791 C42.78712337 45.13950566 42.77792161 50.79797319 42.76625061 56.45643616 C42.7468416 65.05730586 42.70852465 73.65790621 42.67382812 82.25878906 C63.13382813 82.25878906 83.59382812 82.25878906 104.67382812 82.25878906 C104.650625 76.59078125 104.62742187 70.92277344 104.60351562 65.08300781 C104.59329893 61.4964147 104.58367117 57.90983949 104.57617188 54.32324219 C104.56420719 48.62797326 104.5500391 42.93276851 104.52294922 37.23754883 C104.50124978 32.6469585 104.48926562 28.05643698 104.48407364 23.46579933 C104.48037266 21.71267424 104.47314576 19.959553 104.46236801 18.20645714 C104.44789158 15.75466082 104.44584856 13.3031504 104.44677734 10.85131836 C104.43958679 10.12339584 104.43239624 9.39547333 104.42498779 8.64549255 C104.44016613 4.95298686 104.56723429 3.41867981 106.67382812 0.25878906 C108.65394592 -0.10870361 108.65394592 -0.10870361 111.10766602 -0.09765625 C112.48402977 -0.1021579 112.48402977 -0.1021579 113.88819885 -0.10675049 C115.37730019 -0.08823029 115.37730019 -0.08823029 116.89648438 -0.06933594 C117.91230087 -0.06746277 118.92811737 -0.0655896 119.97471619 -0.06365967 C122.12420936 -0.05692989 124.2736901 -0.04299717 126.4230957 -0.02246094 C129.726189 0.00869343 133.02880562 0.01850797 136.33203125 0.02441406 C138.41602149 0.03358357 140.50000684 0.04395917 142.58398438 0.05566406 C143.57874283 0.05991394 144.57350128 0.06416382 145.59840393 0.06854248 C146.51282761 0.07815002 147.42725128 0.08775757 148.36938477 0.09765625 C149.1783168 0.10448425 149.98724884 0.11131226 150.82069397 0.11834717 C152.67382812 0.25878906 152.67382812 0.25878906 153.67382812 1.25878906 C153.77395446 4.06335232 153.80822013 6.84336292 153.80081177 9.6484375 C153.80237176 10.53880077 153.80393175 11.42916405 153.80553901 12.34650803 C153.80955301 15.35374315 153.80635783 18.36092849 153.80322266 21.36816406 C153.80457652 23.51444529 153.80635637 25.66072629 153.80853271 27.80700684 C153.81310882 33.65394149 153.81131676 39.5008586 153.80815363 45.34779358 C153.80563094 51.45191497 153.80796731 57.5560348 153.80953979 63.66015625 C153.81136176 73.9130887 153.80895448 84.16601395 153.80419922 94.41894531 C153.79875655 106.29149832 153.80051919 118.16403417 153.80602562 130.03658676 C153.810556 140.20978823 153.81120768 150.38298452 153.80858696 160.55618668 C153.80702376 166.64109834 153.80683157 172.72600193 153.81012344 178.81091309 C153.81300106 184.53010364 153.81102849 190.24927195 153.80522919 195.96846008 C153.803901 198.07404035 153.80429669 200.17962248 153.80649185 202.28520203 C153.80920106 205.14654063 153.80582506 208.00780672 153.80081177 210.86914062 C153.80304249 211.71377239 153.80527321 212.55840416 153.80757153 213.42863083 C153.78797795 219.14463924 153.78797795 219.14463924 152.67382812 220.25878906 C151.24191952 220.36210833 149.80500009 220.39728792 148.36938477 220.40405273 C147.45496109 220.41043259 146.54053741 220.41681244 145.59840393 220.42338562 C144.10626625 220.42505486 144.10626625 220.42505486 142.58398438 220.42675781 C141.5691246 220.43008621 140.55426483 220.43341461 139.50865173 220.43684387 C137.35741633 220.44191756 135.20617302 220.44425206 133.05493164 220.4440918 C129.75393777 220.4462774 126.45327837 220.46442613 123.15234375 220.48339844 C121.06705844 220.48633237 118.98177154 220.48831717 116.89648438 220.48925781 C115.90375015 220.49644333 114.91101593 220.50362885 113.88819885 220.5110321 C112.5118351 220.50641716 112.5118351 220.50641716 111.10766602 220.50170898 C110.29793839 220.503134 109.48821075 220.50455902 108.65394592 220.50602722 C106.67382812 220.25878906 106.67382812 220.25878906 104.67382812 218.25878906 C104.4855482 215.33630524 104.42214073 212.50928085 104.44677734 209.58642578 C104.44648529 208.68880524 104.44619324 207.79118469 104.44589233 206.86636353 C104.4472891 203.89030391 104.46286657 200.91449261 104.47851562 197.93847656 C104.48224452 195.87867367 104.48509208 193.81886901 104.48709106 191.75906372 C104.49473722 186.33057786 104.51439413 180.90219856 104.53649902 175.47375488 C104.56052789 168.96431175 104.56973375 162.45483304 104.58140564 155.94535828 C104.60081796 146.04976103 104.63913374 136.15439773 104.67382812 126.25878906 C84.21382812 126.25878906 63.75382813 126.25878906 42.67382812 126.25878906 C42.69703125 132.87683594 42.72023438 139.49488281 42.74414062 146.31347656 C42.75435531 150.49707421 42.76398292 154.68065657 42.77148438 158.86425781 C42.78345681 165.50996072 42.79764557 172.15560871 42.82470703 178.80126953 C42.84638004 184.15694914 42.85838502 189.51256988 42.86358261 194.86828995 C42.86728836 196.91530408 42.87452437 198.96231486 42.88528824 201.00930405 C42.89972954 203.86841639 42.90180917 206.72728305 42.90087891 209.58642578 C42.90806946 210.43950317 42.91526001 211.29258057 42.92266846 212.17150879 C42.90193245 218.03068474 42.90193245 218.03068474 40.67382812 220.25878906 C38.73840332 220.51275635 38.73840332 220.51275635 36.34765625 220.51757812 C35.45332886 220.52388245 34.55900146 220.53018677 33.63757324 220.53668213 C32.18598816 220.53060944 32.18598816 220.53060944 30.70507812 220.52441406 C29.71382935 220.52632751 28.72258057 220.52824097 27.70129395 220.5302124 C25.60310615 220.53157492 23.50490994 220.52787388 21.40673828 220.51953125 C18.18698267 220.50883277 14.96778504 220.51942442 11.74804688 220.53222656 C9.71288939 220.53090498 7.67773225 220.52834261 5.64257812 220.52441406 C4.67485474 220.52846252 3.70713135 220.53251099 2.71008301 220.53668213 C1.36859192 220.52722565 1.36859192 220.52722565 0 220.51757812 C-0.78894653 220.51598694 -1.57789307 220.51439575 -2.39074707 220.51275635 C-4.32617188 220.25878906 -4.32617188 220.25878906 -6.32617188 218.25878906 C-6.524038 215.41766462 -6.5953578 212.67389898 -6.58013916 209.83154297 C-6.58325914 208.94919794 -6.58637912 208.06685291 -6.58959365 207.15777016 C-6.59760888 204.18356386 -6.59123633 201.2095596 -6.58496094 198.23535156 C-6.58766924 196.11024861 -6.59122926 193.9851466 -6.59558105 191.86004639 C-6.6047265 186.07506779 -6.60115194 180.29016025 -6.59482288 174.50518036 C-6.58977402 168.46292422 -6.59445122 162.42067434 -6.59759521 156.37841797 C-6.60123812 146.22980655 -6.59642727 136.0812242 -6.58691406 125.93261719 C-6.5760289 114.18444553 -6.57955425 102.43634327 -6.59056687 90.68817329 C-6.59963052 80.6176907 -6.60092955 70.54722905 -6.59568954 60.4767437 C-6.59256475 54.45496355 -6.59217439 48.43321606 -6.59876251 42.41143799 C-6.60452196 36.75130194 -6.60056486 31.09125575 -6.588974 25.43112946 C-6.58631989 23.34854532 -6.58710521 21.26595368 -6.59149933 19.1833725 C-6.59692671 16.35082315 -6.59015502 13.51856567 -6.58013916 10.68603516 C-6.5846006 9.85278025 -6.58906205 9.01952534 -6.59365869 8.16102028 C-6.5534871 2.34449425 -6.08655844 0.01227567 0 0 Z " fill="#151013" transform="translate(455.326171875,93.7412109375)"/>
<path d="M0 0 C0.91442368 -0.00637985 1.82884735 -0.0127597 2.77098083 -0.01933289 C3.76573929 -0.02044571 4.76049774 -0.02155853 5.78540039 -0.02270508 C6.80026016 -0.02603348 7.81511993 -0.02936188 8.86073303 -0.03279114 C11.01196844 -0.03786483 13.16321174 -0.04019933 15.31445312 -0.04003906 C18.615447 -0.04222467 21.91610639 -0.0603734 25.21704102 -0.0793457 C27.30232632 -0.08227964 29.38761323 -0.08426443 31.47290039 -0.08520508 C32.46563461 -0.09239059 33.45836884 -0.09957611 34.48118591 -0.10697937 C35.39876175 -0.10390274 36.31633759 -0.10082611 37.26171875 -0.09765625 C38.07144638 -0.09908127 38.88117401 -0.10050629 39.71543884 -0.10197449 C41.69555664 0.14526367 41.69555664 0.14526367 43.69555664 2.14526367 C43.93606567 5.11917114 43.93606567 5.11917114 43.92260742 8.98168945 C43.92289948 9.68423859 43.92319153 10.38678772 43.92349243 11.11062622 C43.92209687 13.43740099 43.90652536 15.76385721 43.89086914 18.09057617 C43.88713981 19.70197372 43.88429246 21.31337354 43.8822937 22.92477417 C43.87465095 27.16959881 43.85499704 31.41428697 43.83288574 35.65905762 C43.81244107 39.98907627 43.80329494 44.31911693 43.79321289 48.64916992 C43.77175168 57.14793053 43.73760809 65.64658013 43.69555664 74.14526367 C44.78658691 73.63431152 44.78658691 73.63431152 45.8996582 73.11303711 C47.3532373 72.44062988 47.3532373 72.44062988 48.83618164 71.75463867 C49.79041016 71.31087891 50.74463867 70.86711914 51.7277832 70.40991211 C68.94341773 63.07386515 89.16647641 62.91227563 106.69555664 69.14526367 C110.2913024 70.84974056 113.48724107 72.79906745 116.69555664 75.14526367 C117.74743164 75.88776367 118.79930664 76.63026367 119.88305664 77.39526367 C133.18161677 90.39830024 138.66199075 109.65743357 138.88580322 127.88020325 C138.8900531 128.706306 138.89430298 129.53240875 138.89868164 130.38354492 C138.90438171 131.26318405 138.91008179 132.14282318 138.91595459 133.04911804 C138.92536612 134.90903539 138.9319232 136.76896912 138.93579102 138.62890625 C138.94539647 141.41136745 138.97641448 144.19305665 139.00805664 146.9753418 C139.14570013 170.10846058 136.05384547 194.64371746 119.64868164 212.33276367 C106.95786229 224.10984403 90.22406359 224.99324321 73.80102539 224.52026367 C60.15081166 223.84503282 42.74896042 220.19866745 32.69555664 210.14526367 C31.70555664 213.44526367 30.71555664 216.74526367 29.69555664 220.14526367 C24.87174862 220.16991557 20.04797697 220.1881006 15.22412109 220.20019531 C13.581862 220.20523541 11.93960741 220.21206745 10.29736328 220.22070312 C7.94180185 220.23278293 5.58629955 220.23849506 3.23071289 220.24291992 C2.49216568 220.24808121 1.75361847 220.25324249 0.99269104 220.25856018 C-0.77342424 220.25875617 -2.53941482 220.20721086 -4.30444336 220.14526367 C-6.13596876 218.31373827 -5.42983024 215.75294197 -5.43818676 213.31510544 C-5.43484068 212.04815779 -5.43484068 212.04815779 -5.431427 210.75561523 C-5.43298699 209.86525196 -5.43454698 208.97488869 -5.43615425 208.05754471 C-5.44016824 205.05030959 -5.43697306 202.04312424 -5.43383789 199.03588867 C-5.43519175 196.88960744 -5.4369716 194.74332645 -5.43914795 192.5970459 C-5.44372405 186.75011124 -5.441932 180.90319414 -5.43876886 175.05625916 C-5.43624617 168.95213777 -5.43858254 162.84801793 -5.44015503 156.74389648 C-5.44197699 146.49096404 -5.43956972 136.23803878 -5.43481445 125.98510742 C-5.42937178 114.11255441 -5.43113442 102.24001857 -5.43664086 90.36746597 C-5.44117123 80.1942645 -5.44182291 70.02106821 -5.43920219 59.84786606 C-5.43763899 53.76295439 -5.4374468 47.67805081 -5.44073868 41.59313965 C-5.44361629 35.87394909 -5.44164373 30.15478079 -5.43584442 24.43559265 C-5.43451623 22.33001238 -5.43491193 20.22443025 -5.43710709 18.11885071 C-5.43981629 15.25751211 -5.4364403 12.39624602 -5.431427 9.53491211 C-5.43365772 8.69028034 -5.43588845 7.84564857 -5.43818676 6.97542191 C-5.41436357 0.02551322 -5.41436357 0.02551322 0 0 Z M42.69555664 111.14526367 C42.69555664 133.25526367 42.69555664 155.36526367 42.69555664 178.14526367 C53.80722175 183.70109623 64.21809802 187.51484254 76.44555664 183.95776367 C81.60038426 182.03592899 84.42197235 179.12639479 87.38305664 174.52026367 C90.84661539 165.61396974 91.06846144 156.2443652 91.06616211 146.78491211 C91.07053722 144.7791652 91.10700318 142.77562447 91.14477539 140.77026367 C91.17542181 130.41177257 90.04808773 118.82592983 83.14086914 110.51245117 C77.08642211 104.78527155 70.65354231 104.53596534 62.53540039 104.74682617 C55.33259444 105.49421804 49.12719639 107.9294438 42.69555664 111.14526367 Z " fill="#151013" transform="translate(793.304443359375,93.854736328125)"/>
<path d="M0 0 C6.6752034 -0.02526945 13.35039457 -0.04283268 20.02563477 -0.05493164 C22.29842591 -0.05997325 24.5712138 -0.06680637 26.84399414 -0.07543945 C30.10303551 -0.08751261 33.36203417 -0.09322987 36.62109375 -0.09765625 C37.64400009 -0.10281754 38.66690643 -0.10797882 39.72080994 -0.11329651 C40.66170975 -0.11337204 41.60260956 -0.11344757 42.57202148 -0.11352539 C43.40475082 -0.115746 44.23748016 -0.11796661 45.09544373 -0.12025452 C47 0 47 0 48 1 C48.10942963 4.06239662 48.15424023 7.10306406 48.15771484 10.16625977 C48.16279556 11.12891251 48.16787628 12.09156525 48.17311096 13.08338928 C48.18384229 15.1825169 48.19245154 17.28165615 48.19923019 19.38080025 C48.2109885 22.70582739 48.23043582 26.03072283 48.25234985 29.35569763 C48.3140518 38.81268916 48.36793605 48.26966972 48.40136719 57.72680664 C48.42234726 63.50523459 48.45768511 69.28342685 48.50212479 75.06171989 C48.51626677 77.26282914 48.52500314 79.46398014 48.52817917 81.66513252 C48.53310378 84.75299721 48.55630477 87.84024066 48.58349609 90.92797852 C48.58048996 91.83271912 48.57748383 92.73745972 48.5743866 93.6696167 C48.66217905 100.4043699 49.48009995 106.41378679 54.375 111.4375 C60.20556844 114.90807645 67.21137083 114.73293537 73.74609375 113.46875 C78.15402722 112.34384049 82.1201202 110.99004202 86.17944336 108.93457031 C86.89603622 108.57276672 87.61262909 108.21096313 88.35093689 107.8381958 C88.89512772 107.56159119 89.43931854 107.28498657 90 107 C90.00423194 106.45462617 90.00846388 105.90925234 90.01282406 105.34735203 C90.11599971 92.09477185 90.22468072 78.84224676 90.33933926 65.58976078 C90.39461881 59.18103358 90.44804671 52.77230185 90.49731445 46.36352539 C90.54488395 40.18436499 90.59722378 34.00526209 90.65294075 27.82616997 C90.67339802 25.46296041 90.69210538 23.09973506 90.70907402 20.73649788 C90.73304365 17.43893826 90.76310801 14.14148848 90.79467773 10.84399414 C90.8004332 9.85641113 90.80618866 8.86882812 90.81211853 7.85131836 C90.82190735 6.95804337 90.83169617 6.06476837 90.84178162 5.14442444 C90.84823417 4.36366578 90.85468672 3.58290712 90.8613348 2.77848911 C91 1 91 1 92 0 C93.44289787 -0.09295815 94.89029785 -0.11746513 96.33618164 -0.11352539 C97.2570607 -0.11344986 98.17793976 -0.11337433 99.12672424 -0.11329651 C100.12775681 -0.10813522 101.12878937 -0.10297394 102.16015625 -0.09765625 C103.17975937 -0.0962413 104.19936249 -0.09482635 105.24986267 -0.09336853 C108.52077107 -0.08775097 111.79161213 -0.0751955 115.0625 -0.0625 C117.27408756 -0.05748726 119.48567618 -0.05292396 121.69726562 -0.04882812 C127.13153357 -0.03777584 132.56576197 -0.02102063 138 0 C139.3439758 2.68795161 139.12900675 4.7588422 139.13371277 7.76977539 C139.14011024 9.61226364 139.14011024 9.61226364 139.14663696 11.49197388 C139.14628742 12.8605347 139.14582588 14.2290955 139.14526367 15.59765625 C139.14825447 17.03311247 139.15165681 18.46856787 139.15544128 19.90402222 C139.16429254 23.8088765 139.16661984 27.71370889 139.16725707 31.61857224 C139.16820514 34.87426645 139.17188217 38.12995553 139.17542917 41.38564777 C139.18357764 49.06341625 139.186013 56.74117301 139.18530273 64.41894531 C139.1847015 72.34991145 139.19526155 80.28080967 139.2110464 88.21175861 C139.22410177 95.01262642 139.22948749 101.81347197 139.22884732 108.61435223 C139.22859179 112.67994764 139.23147348 116.7454827 139.24202538 120.81106567 C139.25167302 124.63266881 139.25180864 128.45415345 139.24450874 132.27576065 C139.2434588 133.68107398 139.2458499 135.08639457 139.2518692 136.4916954 C139.25953399 138.40452374 139.2537701 140.31739207 139.24723816 142.23022461 C139.24778293 143.30243759 139.24832769 144.37465057 139.24888897 145.47935486 C139 148 139 148 137 150 C133.92724609 150.22705078 133.92724609 150.22705078 130.0234375 150.1953125 C129.33819 150.1924826 128.6529425 150.18965271 127.94692993 150.18673706 C125.75610973 150.17553281 123.56569684 150.15042859 121.375 150.125 C119.8906309 150.11497048 118.4062554 150.10584458 116.921875 150.09765625 C113.28111739 150.07559294 109.64059844 150.04106176 106 150 C104.50178941 146.62902617 104 144.79557881 104 141 C102.38544922 141.79664063 102.38544922 141.79664063 100.73828125 142.609375 C85.28669738 150.12468151 71.76688498 154.1771492 54.4375 154.25 C53.23802734 154.270625 52.03855469 154.29125 50.80273438 154.3125 C35.86922913 154.37697277 21.87842068 151.32363673 10.74609375 140.86328125 C0.18722206 129.59576046 -1.15990257 113.94895333 -1.12939453 99.20947266 C-1.13114685 98.15813141 -1.13289917 97.10679016 -1.13470459 96.02359009 C-1.13908378 92.57039713 -1.13620028 89.11725592 -1.1328125 85.6640625 C-1.13348636 83.25890086 -1.13445708 80.85373929 -1.13571167 78.44857788 C-1.13718305 73.4203018 -1.13505093 68.39204353 -1.13037109 63.36376953 C-1.12465569 56.90720527 -1.12796777 50.45068241 -1.13394356 43.99411964 C-1.13754857 39.03404424 -1.13641118 34.07397874 -1.13381577 29.11390305 C-1.13314728 26.73196788 -1.13397218 24.35003182 -1.13629532 21.96809769 C-1.13882283 18.65009405 -1.13498066 15.33215868 -1.12939453 12.01416016 C-1.13141876 11.02403931 -1.13344299 10.03391846 -1.13552856 9.01379395 C-1.13270874 8.11387726 -1.12988892 7.21396057 -1.12698364 6.28677368 C-1.1264181 5.11048118 -1.1264181 5.11048118 -1.12584114 3.91042519 C-1 2 -1 2 0 0 Z " fill="#151013" transform="translate(629,164)"/>
<path d="M0 0 C0.91765137 -0.00315216 1.83530273 -0.00630432 2.78076172 -0.009552 C4.27760498 -0.00651566 4.27760498 -0.00651566 5.8046875 -0.00341797 C6.82191895 -0.00437469 7.83915039 -0.00533142 8.88720703 -0.00631714 C11.04264386 -0.00699908 13.19808272 -0.00514382 15.35351562 -0.00097656 C18.66541121 0.00437148 21.97717117 -0.0009211 25.2890625 -0.00732422 C27.37760447 -0.00666344 29.46614635 -0.00538228 31.5546875 -0.00341797 C32.55258301 -0.0054422 33.55047852 -0.00746643 34.57861328 -0.009552 C35.49626465 -0.00639984 36.41391602 -0.00324768 37.359375 0 C38.17132324 0.00079559 38.98327148 0.00159119 39.81982422 0.00241089 C41.6796875 0.12939453 41.6796875 0.12939453 42.6796875 1.12939453 C42.76840023 4.15917257 42.794881 7.16606475 42.77734375 10.19580078 C42.7759288 11.10442368 42.77451385 12.01304657 42.77305603 12.94920349 C42.76743943 15.86346674 42.75488415 18.77765434 42.7421875 21.69189453 C42.73717464 23.66259655 42.73261136 25.63329977 42.72851562 27.60400391 C42.71746461 32.44583012 42.70018888 37.28759948 42.6796875 42.12939453 C43.60305908 42.1189209 44.52643066 42.10844727 45.4777832 42.09765625 C48.90505468 42.06356263 52.33214583 42.03849007 55.75952148 42.01953125 C57.24262333 42.00947632 58.72570538 41.99583049 60.20874023 41.97851562 C62.34103281 41.95424447 64.47306319 41.94290654 66.60546875 41.93408203 C68.52999878 41.91837158 68.52999878 41.91837158 70.4934082 41.90234375 C73.6796875 42.12939453 73.6796875 42.12939453 76.6796875 44.12939453 C76.97136262 46.94324659 77.07566658 49.53366398 77.04296875 52.34814453 C77.04371651 53.56866516 77.04371651 53.56866516 77.04447937 54.81384277 C77.04213724 56.53542521 77.03240046 58.25701097 77.01586914 59.97851562 C76.99228069 62.61896266 76.99530627 65.25840023 77.00195312 67.89892578 C76.99637639 69.56950474 76.98926653 71.24007943 76.98046875 72.91064453 C76.98138016 73.70337769 76.98229156 74.49611084 76.98323059 75.31286621 C76.91071097 80.89837106 76.91071097 80.89837106 74.6796875 83.12939453 C72.24223853 83.30427708 69.9203267 83.36116858 67.484375 83.32470703 C66.77693146 83.32187714 66.06948792 83.31904724 65.34060669 83.31613159 C63.0784624 83.3049259 60.81671235 83.27982132 58.5546875 83.25439453 C57.02214113 83.2443652 55.48958856 83.23523927 53.95703125 83.22705078 C50.19776449 83.2049854 46.43879286 83.17045349 42.6796875 83.12939453 C42.74100614 91.24019289 42.81818884 99.35062156 42.91540241 107.46106148 C42.9600533 111.22743702 42.9993207 114.99370571 43.02612305 118.76025391 C43.05220927 122.39794694 43.09264831 126.03522764 43.14287376 129.67266464 C43.15950673 131.05761445 43.17104322 132.44263551 43.17730141 133.82767105 C43.18698052 135.77357627 43.21676906 137.71934953 43.24731445 139.66503906 C43.25841751 140.77090363 43.26952057 141.87676819 43.28096008 143.0161438 C43.83169257 147.31624521 45.3474428 150.69466947 48.3046875 153.87939453 C55.29177951 157.55681138 62.6122906 157.31967041 70.27050781 156.96801758 C72.30078125 156.90673828 72.30078125 156.90673828 75.6796875 157.12939453 C78.11327432 160.77977476 77.92476545 162.53444731 77.91015625 166.87939453 C77.90969803 167.53391602 77.90923981 168.1884375 77.9087677 168.86279297 C77.90575087 170.24464738 77.89788152 171.62649856 77.88549805 173.00830078 C77.86725388 175.12170481 77.86498839 177.23466999 77.86523438 179.34814453 C77.82741253 189.68621945 77.82741253 189.68621945 76.6796875 193.12939453 C74.421875 194.04345703 74.421875 194.04345703 71.5546875 194.75439453 C70.62398438 194.99416016 69.69328125 195.23392578 68.734375 195.48095703 C51.01174151 199.24305059 30.53902532 198.73607846 14.40234375 189.91845703 C4.23884672 183.24000417 -1.21928761 174.58051384 -3.93481445 162.8671875 C-5.64915445 154.54848289 -5.70230457 146.47613118 -5.61328125 138.01220703 C-5.60766886 136.41796269 -5.60340656 134.82371309 -5.60041809 133.22946167 C-5.58909832 129.08336475 -5.55974625 124.93759558 -5.52630615 120.79162598 C-5.49532357 116.54097931 -5.48185325 112.29027841 -5.46679688 108.03955078 C-5.43486067 99.73601688 -5.3838255 91.43274675 -5.3203125 83.12939453 C-6.00657715 83.13986816 -6.6928418 83.1503418 -7.39990234 83.16113281 C-10.49833539 83.20261328 -13.59671011 83.22869522 -16.6953125 83.25439453 C-17.77554687 83.27115234 -18.85578125 83.28791016 -19.96875 83.30517578 C-21 83.31162109 -22.03125 83.31806641 -23.09375 83.32470703 C-24.04685059 83.33518066 -24.99995117 83.3456543 -25.98193359 83.35644531 C-28.3203125 83.12939453 -28.3203125 83.12939453 -30.3203125 81.12939453 C-30.57910156 78.18017578 -30.57910156 78.18017578 -30.5859375 74.44189453 C-30.58785095 73.78358643 -30.5897644 73.12527832 -30.59173584 72.44702148 C-30.593097 71.05500913 -30.58940533 69.66298406 -30.58105469 68.27099609 C-30.5703535 66.13756864 -30.58095156 64.00498322 -30.59375 61.87158203 C-30.59242839 60.52001767 -30.58986597 59.16845383 -30.5859375 57.81689453 C-30.58368164 56.58326172 -30.58142578 55.34962891 -30.57910156 54.07861328 C-30.3203125 51.12939453 -30.3203125 51.12939453 -28.3203125 49.12939453 C-26.30493164 48.44335938 -26.30493164 48.44335938 -23.85546875 47.84033203 C-22.97310547 47.62119141 -22.09074219 47.40205078 -21.18164062 47.17626953 C-20.25802734 46.95455078 -19.33441406 46.73283203 -18.3828125 46.50439453 C-17.00319336 46.16021484 -17.00319336 46.16021484 -15.59570312 45.80908203 C-8.74197824 44.12939453 -8.74197824 44.12939453 -5.3203125 44.12939453 C-5.32816772 42.18335327 -5.32816772 42.18335327 -5.33618164 40.19799805 C-5.35422719 35.40292038 -5.36574287 30.60784573 -5.37524414 25.81274414 C-5.38028538 23.73396297 -5.38711824 21.65518537 -5.39575195 19.57641602 C-5.40782672 16.59536867 -5.41354274 13.61436804 -5.41796875 10.63330078 C-5.42571068 9.23018394 -5.42571068 9.23018394 -5.43360901 7.79872131 C-5.43372231 6.50749611 -5.43372231 6.50749611 -5.43383789 5.19018555 C-5.4360585 4.42851578 -5.43827911 3.66684601 -5.44056702 2.88209534 C-5.19806752 -0.65231706 -3.01782807 0.00295704 0 0 Z " fill="#151013" transform="translate(353.3203125,120.87060546875)"/>
<path d="M0 0 C0.83088638 -0.00615326 1.66177277 -0.01230652 2.51783752 -0.01864624 C3.40647995 -0.00427521 4.29512238 0.01009583 5.21069336 0.02490234 C6.13015244 0.02581879 7.04961151 0.02673523 7.99693298 0.02767944 C9.93778659 0.03371394 11.87863094 0.04945542 13.81933594 0.07421875 C16.7932355 0.11075015 19.76588962 0.11523788 22.73999023 0.11474609 C24.62606873 0.12457656 26.51213878 0.13623326 28.39819336 0.14990234 C29.28886002 0.15212799 30.17952667 0.15435364 31.09718323 0.15664673 C32.33878456 0.17578629 32.33878456 0.17578629 33.60546875 0.1953125 C34.696567 0.20674789 34.696567 0.20674789 35.80970764 0.21841431 C37.73803711 0.48583984 37.73803711 0.48583984 40.73803711 2.48583984 C41.11276722 5.02210236 41.11276722 5.02210236 41.11225891 8.2935791 C41.12278038 10.14868858 41.12278038 10.14868858 41.1335144 12.04127502 C41.12608603 13.41928261 41.11835486 14.7972886 41.11035156 16.17529297 C41.11277844 17.62060305 41.11649675 19.06591146 41.12141418 20.51121521 C41.13084119 24.44301302 41.12138274 28.37456269 41.10808206 32.30634117 C41.09678963 36.41471788 41.10087335 40.52308197 41.10282898 44.63146973 C41.10371266 51.53169829 41.0926162 58.43182874 41.07421875 65.33203125 C41.05304997 73.31754106 41.0495408 81.30290709 41.05578071 89.28843927 C41.06146915 96.96004802 41.05583486 104.63160597 41.04460716 112.3032074 C41.03995426 115.57271765 41.0390903 118.84219692 41.04119301 122.11170959 C41.04307229 125.95959958 41.03499992 129.80734258 41.01913261 133.65519905 C41.01487859 135.07017979 41.01404668 136.48517542 41.01682281 137.90015984 C41.02002907 139.82614686 41.0097666 141.7521425 40.99873352 143.67810059 C40.99668065 144.75768791 40.99462778 145.83727524 40.9925127 146.94957733 C40.73803711 149.48583984 40.73803711 149.48583984 38.73803711 151.48583984 C36.8473053 151.75999451 36.8473053 151.75999451 34.51953125 151.79223633 C33.21291283 151.81621742 33.21291283 151.81621742 31.87989807 151.84068298 C30.93718552 151.84604568 29.99447296 151.85140839 29.02319336 151.85693359 C28.0565123 151.86596207 27.08983124 151.87499054 26.09385681 151.8842926 C24.04697782 151.89881621 22.00005219 151.90768706 19.953125 151.91137695 C16.81618357 151.92328047 13.68120406 151.97245147 10.54467773 152.02294922 C8.55835924 152.03241212 6.57202863 152.03964779 4.58569336 152.04443359 C3.64500504 152.06396591 2.70431671 152.08349823 1.73512268 152.10362244 C0.86089157 152.09754471 -0.01333954 152.09146698 -0.9140625 152.08520508 C-1.68302353 152.09027573 -2.45198456 152.09534637 -3.24424744 152.10057068 C-5.26196289 151.48583984 -5.26196289 151.48583984 -6.8638401 149.32024574 C-8.44788231 146.10892652 -8.64129527 144.0843397 -8.64964294 140.52061462 C-8.65954758 139.32471207 -8.66945221 138.12880951 -8.67965698 136.89666748 C-8.67515533 135.59312317 -8.67065369 134.28957886 -8.66601562 132.9465332 C-8.67172077 131.55328321 -8.67868559 130.16003789 -8.68681335 128.76679993 C-8.70474104 124.99002085 -8.70357756 121.21347413 -8.69787097 117.4366653 C-8.69477952 114.28289288 -8.70087085 111.12916513 -8.70690972 107.97539908 C-8.72095111 100.53670282 -8.71939599 93.09812142 -8.70800781 85.65942383 C-8.69651771 77.98451636 -8.7106179 70.30995797 -8.73740429 62.63509649 C-8.75954748 56.04387988 -8.76620208 49.45277296 -8.76032788 42.86152178 C-8.75695486 38.92551438 -8.75939636 34.98973093 -8.7765789 31.05375481 C-8.79202493 27.35425974 -8.78811926 23.65528305 -8.76927376 19.95580864 C-8.76382037 17.95035884 -8.77811839 15.94488588 -8.79296875 13.93948364 C-8.78313461 12.74640091 -8.77330048 11.55331818 -8.76316833 10.32408142 C-8.76295905 9.28710586 -8.76274977 8.25013029 -8.76253414 7.18173122 C-7.85473769 2.29267572 -4.86775581 -0.01905162 0 0 Z " fill="#151013" transform="translate(268.261962890625,162.51416015625)"/>
<path d="M0 0 C6.57858243 3.79739311 11.90801142 9.38861928 14.1796875 16.75 C15.92995008 25.59343196 14.86370298 32.47988836 10.453125 40.36328125 C6.14489768 46.57707065 0.5238507 49.72166756 -6.73046875 51.59375 C-13.53920011 52.63969987 -20.43106061 51.86325134 -26.4609375 48.4140625 C-33.68955463 43.07373719 -37.8675162 36.85277252 -39.375 28 C-40.12154879 20.90778648 -37.96680217 15.00673743 -34.6875 8.8125 C-26.12868455 -1.59687015 -12.66037185 -5.74943492 0 0 Z " fill="#151013" transform="translate(297.375,101)"/>
</svg>
